<svg width="30" height="30" viewBox="0 0 30 30" fill="none" xmlns="http://www.w3.org/2000/svg">
<path fill-rule="evenodd" clip-rule="evenodd" d="M0 0V30H30V0H0ZM23.2583 10.7643C23.2664 10.9472 23.2706 11.131 23.2706 11.3155C23.2706 16.9465 18.9847 23.4392 11.1471 23.4392C8.74075 23.4392 6.50097 22.7339 4.61532 21.5247C4.94868 21.5643 5.28778 21.5845 5.63182 21.5845C7.62818 21.5845 9.46543 20.9033 10.9238 19.7602C9.05921 19.726 7.4855 18.494 6.94319 16.8011C7.2035 16.851 7.47046 16.8778 7.74501 16.8778C8.13363 16.8778 8.51011 16.8255 8.86767 16.7283C6.91846 16.3367 5.44958 14.6146 5.44958 12.5502C5.44958 12.5322 5.44958 12.5143 5.44998 12.4965C6.0244 12.8156 6.68136 13.0073 7.37993 13.0295C6.23651 12.2654 5.48446 10.9611 5.48446 9.4829C5.48446 8.70191 5.69459 7.97004 6.06145 7.34057C8.16297 9.91866 11.3027 11.6149 14.8441 11.7928C14.7713 11.4808 14.7335 11.1556 14.7335 10.8217C14.7335 8.46864 16.6415 6.56084 18.9946 6.56084C20.2202 6.56084 21.3276 7.07822 22.1049 7.90629C23.0753 7.71541 23.9873 7.36062 24.8107 6.87237C24.4926 7.86745 23.817 8.70231 22.9371 9.22978C23.7992 9.12673 24.6203 8.8976 25.3845 8.5587C24.8134 9.41314 24.091 10.1637 23.2583 10.7643Z" fill="#9A8464"/>
</svg>
