<svg width="30" height="30" viewBox="0 0 30 30" fill="none" xmlns="http://www.w3.org/2000/svg">
<g opacity="0.6">
<path fill-rule="evenodd" clip-rule="evenodd" d="M20.1448 6.87695H9.8552C8.21303 6.87695 6.87671 8.21319 6.87671 9.85544V20.145C6.87671 21.7875 8.21303 23.1238 9.8552 23.1238H20.1448C21.7872 23.1238 23.1235 21.7875 23.1235 20.145V9.85544C23.1235 8.21327 21.7872 6.87695 20.1448 6.87695ZM14.9998 20.3486C12.051 20.3486 9.65155 17.9492 9.65155 15C9.65155 12.0512 12.051 9.65179 14.9998 9.65179C17.9489 9.65179 20.3484 12.0512 20.3484 15C20.3484 17.9492 17.9489 20.3486 14.9998 20.3486ZM20.5205 10.7578C19.8223 10.7578 19.2546 10.1901 19.2546 9.49231C19.2546 8.79448 19.8223 8.22679 20.5205 8.22679C21.2182 8.22679 21.7859 8.79448 21.7859 9.49231C21.7859 10.1901 21.2182 10.7578 20.5205 10.7578Z" fill="white"/>
<path fill-rule="evenodd" clip-rule="evenodd" d="M14.9997 11.9116C13.2974 11.9116 11.9111 13.2972 11.9111 14.9996C11.9111 16.7026 13.2974 18.0885 14.9997 18.0885C16.7027 18.0885 18.088 16.7026 18.088 14.9996C18.088 13.2972 16.7027 11.9116 14.9997 11.9116Z" fill="white"/>
<path fill-rule="evenodd" clip-rule="evenodd" d="M0 0V30H30V0H0ZM25.3833 20.1448C25.3833 23.0337 23.0337 25.3833 20.1448 25.3833H9.85525C6.96659 25.3833 4.6167 23.0337 4.6167 20.1448V9.85525C4.6167 6.96659 6.96659 4.6167 9.85525 4.6167H20.1448C23.0337 4.6167 25.3833 6.96659 25.3833 9.85525V20.1448Z" fill="white"/>
</g>
</svg>
